<svg width="64" height="64" viewBox="0 0 64 64" fill="none" xmlns="http://www.w3.org/2000/svg">
<path d="M14.0854 32.1707C12.944 33.0453 12.1654 33.7947 11.752 34.44C11.3387 35.08 11.088 35.768 11.008 36.488H18.152V34.4933H14.4347C14.6507 34.2773 14.84 34.0907 15 33.9573C15.1654 33.824 15.4854 33.5787 15.9627 33.2373C16.7707 32.656 17.3254 32.1173 17.632 31.6267C17.9414 31.1307 18.0934 30.6267 18.0934 30.0853C18.1006 29.5999 17.9602 29.1238 17.6907 28.72C17.4261 28.3117 17.0426 27.9943 16.592 27.8107C16.128 27.608 15.4747 27.5147 14.6374 27.5147C13.8374 27.5147 13.2054 27.616 12.7547 27.8187C12.3206 28.007 11.9529 28.3209 11.6987 28.72C11.448 29.1013 11.2747 29.6427 11.1814 30.3307L13.5654 30.5333C13.632 30.032 13.7627 29.688 13.9574 29.4827C14.055 29.3862 14.1714 29.3108 14.2994 29.2613C14.4274 29.2117 14.5642 29.1891 14.7014 29.1947C14.9947 29.1947 15.2347 29.288 15.4267 29.4827C15.5202 29.5708 15.5942 29.6776 15.6438 29.7961C15.6934 29.9146 15.7175 30.0422 15.7147 30.1707C15.6982 30.4572 15.5981 30.7325 15.4267 30.9627C15.2294 31.2347 14.784 31.64 14.0854 32.1707V32.1707ZM14.232 49.2C13.9544 49.2087 13.6844 49.1082 13.48 48.92C13.2827 48.7333 13.1387 48.4 13.048 47.912L10.6667 48.2267C10.824 48.7707 11.0454 49.2187 11.336 49.576C11.6267 49.9307 11.9974 50.2027 12.448 50.392C12.896 50.576 13.512 50.6667 14.2934 50.6667C15.0934 50.6667 15.736 50.5413 16.2267 50.2933C16.7023 50.0558 17.096 49.6816 17.3574 49.2187C17.6187 48.752 17.7467 48.2747 17.7467 47.768C17.7565 47.4046 17.6758 47.0445 17.512 46.72C17.3545 46.4346 17.1257 46.1948 16.848 46.024C16.6101 45.8882 16.353 45.7893 16.0854 45.7307C16.4527 45.5443 16.7686 45.2705 17.0054 44.9333C17.2068 44.6312 17.3119 44.2751 17.3067 43.912C17.3116 43.6074 17.2466 43.3058 17.1167 43.0303C16.9868 42.7547 16.7955 42.5127 16.5574 42.3227C16.0587 41.8987 15.2507 41.688 14.1334 41.688C13.16 41.688 12.4054 41.88 11.8747 42.272C11.3414 42.6533 10.984 43.2133 10.7974 43.9413L13.048 44.344C13.1094 43.912 13.2267 43.6133 13.4027 43.4427C13.5787 43.272 13.8054 43.1813 14.088 43.1813C14.2056 43.1759 14.323 43.1941 14.4334 43.2349C14.5438 43.2757 14.6449 43.3382 14.7307 43.4187C14.888 43.5787 14.9627 43.7893 14.9627 44.0533C14.9627 44.3307 14.8614 44.568 14.6507 44.7733C14.44 44.9787 14.1787 45.072 13.8694 45.072C13.7657 45.0689 13.6624 45.0591 13.56 45.0427L13.44 46.7733C13.6893 46.6902 13.9484 46.64 14.2107 46.624C14.5627 46.624 14.8427 46.7333 15.0454 46.96C15.2507 47.1787 15.352 47.4907 15.352 47.8987C15.352 48.288 15.2454 48.608 15.0347 48.8427C14.9346 48.9566 14.8111 49.0476 14.6725 49.1093C14.5339 49.171 14.3837 49.2019 14.232 49.2V49.2ZM16.76 22.312V13.3333H14.7894C14.5484 13.8713 14.1893 14.348 13.7387 14.728C13.2907 15.1067 12.6614 15.4267 11.8507 15.7013V17.712C12.7623 17.4606 13.6127 17.0249 14.3494 16.432V22.3147H16.76V22.312ZM24 16H53.3334V21.3333H24V16ZM24 29.3333H53.3334V34.6667H24V29.3333ZM24 42.6667H53.3334V48H24V42.6667Z" fill="white"/>
</svg>
