<svg width="64" height="64" viewBox="0 0 64 64" fill="none" xmlns="http://www.w3.org/2000/svg">
<path d="M25.3333 32C31.216 32 36 27.216 36 21.3333C36 15.4507 31.216 10.6667 25.3333 10.6667C19.4506 10.6667 14.6666 15.4507 14.6666 21.3333C14.6666 27.216 19.4506 32 25.3333 32ZM29.3333 34.6667H21.3333C12.5093 34.6667 5.33331 41.8427 5.33331 50.6667V53.3333H45.3333V50.6667C45.3333 41.8427 38.1573 34.6667 29.3333 34.6667Z" fill="white"/>
<path d="M44.2773 29.4613C45.9014 26.6936 46.6028 23.4808 46.28 20.288C45.8026 15.5307 43.1466 11.3253 38.8053 8.448L35.8586 12.8907C38.8426 14.8693 40.6586 17.688 40.9733 20.8213C41.1184 22.2776 40.9371 23.7479 40.4426 25.1253C39.9481 26.5027 39.1528 27.7525 38.1146 28.784L34.936 31.9627L39.2506 33.2293C50.536 36.536 50.6666 47.8853 50.6666 48H56C56 43.2293 53.4506 33.9067 44.2773 29.4613Z" fill="white"/>
</svg>
